<?xml version="1.0" encoding="UTF-8"?>
<svg id="Capa_1" data-name="Capa 1" xmlns="http://www.w3.org/2000/svg" viewBox="0 0 32.74 31.54">
  <defs>
    <style>
      .cls-1 {
        fill: #035de8;
      }
    </style>
  </defs>
  <path class="cls-1" d="M26.07,9.52c.56-.67,1.12-1.33,1.69-2,3.69,4.96,4.2,13.4-1.45,19.31-5.84,6.11-15.49,6.3-21.57,.5C-1.32,21.55-1.58,12.02,4.03,5.95,9.79-.29,18.47-.07,23.63,3.51c-.43,.39-.85,.77-1.27,1.16-.16,.15-.34,.29-.49,.46-.13,.14-.23,.15-.4,.06-1.25-.71-2.58-1.2-4-1.42-4.28-.68-8,.47-11.11,3.48-2.11,2.04-3.35,4.56-3.68,7.49-.46,4.14,.78,7.72,3.76,10.63,2.69,2.64,5.98,3.82,9.74,3.57,3.31-.22,6.11-1.58,8.38-4,1.92-2.05,3.04-4.49,3.35-7.27,.3-2.75-.25-5.34-1.63-7.74-.06-.1-.12-.21-.18-.31,0-.01-.01-.03-.03-.09Z"/>
  <path class="cls-1" d="M7.57,13.65c.12-1.14,1.14-2.16,2.32-2.36,.89-.14,1.68,.07,2.38,.63,1.14,.91,2.05,1.99,2.65,3.33,.03,.06,.06,.12,.11,.2,.3-.42,.59-.82,.88-1.22,2.58-3.49,5.46-6.71,8.75-9.56,2.03-1.75,4.19-3.32,6.6-4.52,.5-.25,.99-.2,1.47,.12-.42,.38-.84,.74-1.23,1.12-2.72,2.54-5.19,5.3-7.49,8.22-2.33,2.96-4.46,6.06-6.34,9.32-.67,1.17-1.3,2.35-1.94,3.54-.21,.39-.49,.64-.94,.63-.46-.01-.72-.28-.9-.69-1.08-2.43-2.2-4.83-3.55-7.12-.17-.28-.34-.56-.53-.82-.52-.73-1.21-1.03-2.1-.84-.04,0-.08,.01-.15,.02Z"/>
</svg>